<svg width="20" height="20" viewBox="0 0 20 20" fill="none" xmlns="http://www.w3.org/2000/svg">
<path fill-rule="evenodd" clip-rule="evenodd" d="M10.9667 0.000488281C12.8193 0.00354393 13.1984 0.0178145 14.1228 0.0599933C15.1872 0.108542 15.9142 0.277609 16.5503 0.524838C17.2079 0.780364 17.7656 1.12231 18.3216 1.67826C18.8775 2.23424 19.2194 2.79194 19.475 3.44955C19.7222 4.08565 19.8913 4.81261 19.9398 5.87703C19.9885 6.94367 20 7.28422 20 10.0002C20 12.7161 19.9885 13.0566 19.9398 14.1233C19.8913 15.1877 19.7222 15.9147 19.475 16.5508C19.2194 17.2084 18.8775 17.7661 18.3216 18.322C17.7656 18.878 17.2079 19.2199 16.5503 19.4755C15.9142 19.7227 15.1872 19.8918 14.1228 19.9403C13.0561 19.989 12.7156 20.0005 9.99968 20.0005C7.28373 20.0005 6.94318 19.989 5.87654 19.9403C4.81212 19.8918 4.08516 19.7227 3.44906 19.4755C2.79145 19.2199 2.23376 18.878 1.67777 18.322C1.12182 17.7661 0.779876 17.2084 0.52435 16.5508C0.277121 15.9147 0.108054 15.1877 0.059505 14.1233C0.0173262 13.1989 0.00305565 12.8198 0 10.9672V9.03313C0.00305565 7.1805 0.0173262 6.80145 0.059505 5.87703C0.108054 4.81261 0.277121 4.08565 0.52435 3.44955C0.779876 2.79194 1.12182 2.23424 1.67777 1.67826C2.23376 1.12231 2.79145 0.780364 3.44906 0.524838C4.08516 0.277609 4.81212 0.108542 5.87654 0.0599933C6.80096 0.0178145 7.18001 0.00354393 9.03264 0.000488281H10.9667ZM9.99968 4.86485C12.8358 4.86485 15.135 7.16398 15.135 10.0002C15.135 12.8363 12.8358 15.1355 9.99968 15.1355C7.16349 15.1355 4.86436 12.8363 4.86436 10.0002C4.86436 7.16398 7.16349 4.86485 9.99968 4.86485ZM9.99968 6.66671C8.15864 6.66671 6.66622 8.15913 6.66622 10.0002C6.66622 11.8412 8.15864 13.3336 9.99968 13.3336C11.8407 13.3336 13.3331 11.8412 13.3331 10.0002C13.3331 8.15913 11.8407 6.66671 9.99968 6.66671ZM15.3379 3.4619C16.0006 3.4619 16.5379 3.99919 16.5379 4.66196C16.5379 5.32473 16.0006 5.86198 15.3379 5.86198C14.6751 5.86198 14.1378 5.32473 14.1378 4.66196C14.1378 3.99919 14.6751 3.4619 15.3379 3.4619Z" fill="#676A75"/>
</svg>
