<svg width="16" height="16" viewBox="0 0 16 16" fill="none" xmlns="http://www.w3.org/2000/svg">
<path fill-rule="evenodd" clip-rule="evenodd" d="M10.9139 1.70016C8.33821 -0.645631 4.37372 -0.553098 1.91031 1.91031C-0.553098 4.37372 -0.645631 8.33821 1.70016 10.9139C3.93069 13.363 7.61694 13.7341 10.2798 11.8535C10.3199 11.8252 10.3749 11.8292 10.4096 11.8638L14.4971 15.9297C14.5361 15.9685 14.5993 15.9685 14.6383 15.9295L15.9295 14.6383C15.9685 14.5993 15.9685 14.5361 15.9297 14.4971L11.8638 10.4096C11.8292 10.3749 11.8252 10.3199 11.8535 10.2798C13.7341 7.61694 13.363 3.93069 10.9139 1.70016ZM2.04154 6.53293C2.04154 4.05264 4.05221 2.04197 6.5325 2.04197C9.01279 2.04197 11.0235 4.05264 11.0235 6.53293C11.0235 9.01322 9.01279 11.0239 6.5325 11.0239C4.05221 11.0239 2.04154 9.01322 2.04154 6.53293Z" fill="#676A75"/>
</svg>
